# xmcd
# Copyright (C) 1995-1998 Ti Kan
#
# Track frame offsets:
#       150
#       10206
#       22827
#       33132
#       42110
#       43924
#       54862
#       74175
#       76841
#       90780
#       108142
#       109580
#       120212
#       136349
#       149077
#       165183
#       183291
#       199256
#
# Disc length: 2850 seconds
#
# Revision: 0
# Processed by: cddbd v1.5.2PL0 Copyright (c) Steve Scherf et al.
# Submitted via: CD-Transfer v1.0
#
DISCID=d90b2012
DTITLE=Family - M. Chapman, J. Whitney
DYEAR=1900
DGENRE=
TTITLE0=Chase, The
TTITLE1=Mellowing Gray
TTITLE2=Never Like This
TTITLE3=Me My Friend
TTITLE4=Vaiation On A Theme Of ''hey Mr. Policeman''
TTITLE5=Winter
TTITLE6=Old Songs, New Songs
TTITLE7=Variation On A Theme Of ''the Breeze''
TTITLE8=Hey Mr. Policeman
TTITLE9=See Through Windows
TTITLE10=Variation O A Theme Of ''me My Friend''
TTITLE11=Peace Of Mind
TTITLE12=Voyage
TTITLE13=Breeze, The
TTITLE14=3 X Time
TTITLE15=Burlesque
TTITLE16=In My Own Time
TTITLE17=Strange
EXTD=
EXTT0=
EXTT1=
EXTT2=
EXTT3=
EXTT4=
EXTT5=
EXTT6=
EXTT7=
EXTT8=
EXTT9=
EXTT10=
EXTT11=
EXTT12=
EXTT13=
EXTT14=
EXTT15=
EXTT16=
EXTT17=
PLAYORDER=
